<svg xmlns="http://www.w3.org/2000/svg" xmlns:xlink="http://www.w3.org/1999/xlink" width="480" zoomAndPan="magnify" viewBox="0 0 360 503.999982" height="672" preserveAspectRatio="xMidYMid meet" version="1.0"><defs><g/><clipPath id="cf43cc3dc9"><path d="M 56 0.761719 L 305 0.761719 L 305 313.960938 L 56 313.960938 Z M 56 0.761719 " clip-rule="nonzero"/></clipPath><clipPath id="39c123cb2a"><path d="M 56.863281 46.117188 L 237.898438 0.988281 L 304.542969 268.332031 L 123.507812 313.460938 Z M 56.863281 46.117188 " clip-rule="nonzero"/></clipPath><clipPath id="5c5edcad1f"><path d="M 1 44 L 248 44 L 248 280 L 1 280 Z M 1 44 " clip-rule="nonzero"/></clipPath><clipPath id="267ac1fbe5"><path d="M 0.863281 46.117188 L 181.898438 0.988281 L 248.542969 268.332031 L 67.507812 313.460938 Z M 0.863281 46.117188 " clip-rule="nonzero"/></clipPath><clipPath id="5a297b5f39"><path d="M 182.03125 0.957031 L 0.996094 46.085938 L 67.640625 313.429688 L 248.675781 268.300781 Z M 182.03125 0.957031 " clip-rule="nonzero"/></clipPath><clipPath id="2f737d38da"><path d="M 182.03125 0.957031 L 0.996094 46.085938 L 67.640625 313.429688 L 248.675781 268.300781 Z M 182.03125 0.957031 " clip-rule="nonzero"/></clipPath><clipPath id="a018ed85b0"><rect x="0" width="249" y="0" height="314"/></clipPath><clipPath id="64d4dd9a7c"><path d="M 10 43 L 254 43 L 254 282 L 10 282 Z M 10 43 " clip-rule="nonzero"/></clipPath><clipPath id="0ebafa5126"><path d="M 73.050781 2.300781 L 254.59375 45.335938 L 191.046875 313.429688 L 9.5 270.398438 Z M 73.050781 2.300781 " clip-rule="nonzero"/></clipPath><clipPath id="8b8b128bc7"><path d="M 73.050781 2.300781 L 254.59375 45.335938 L 191.046875 313.429688 L 9.5 270.398438 Z M 73.050781 2.300781 " clip-rule="nonzero"/></clipPath><clipPath id="73f4bf3f1b"><path d="M 73.050781 2.300781 L 254.59375 45.335938 L 191.046875 313.429688 L 9.5 270.398438 Z M 73.050781 2.300781 " clip-rule="nonzero"/></clipPath><clipPath id="75371b71de"><path d="M 194 104 L 315.480469 104 L 315.480469 234 L 194 234 Z M 194 104 " clip-rule="nonzero"/></clipPath><clipPath id="7f011fbfc0"><rect x="0" width="122" y="0" height="130"/></clipPath><clipPath id="6a02a7772c"><path d="M 0.601562 104 L 93 104 L 93 234 L 0.601562 234 Z M 0.601562 104 " clip-rule="nonzero"/></clipPath><clipPath id="71b985f70e"><path d="M 2 19 L 92.761719 19 L 92.761719 95 L 2 95 Z M 2 19 " clip-rule="nonzero"/></clipPath><clipPath id="58c2dcc78d"><rect x="0" width="93" y="0" height="130"/></clipPath><clipPath id="2258442256"><rect x="0" width="316" y="0" height="314"/></clipPath></defs><g transform="matrix(1, 0, 0, 1, 27, 95)"><g clip-path="url(#2258442256)"><g clip-path="url(#cf43cc3dc9)"><g clip-path="url(#39c123cb2a)"><g transform="matrix(1, 0, 0, 1, 56, -0.000000000000014211)"><g clip-path="url(#a018ed85b0)"><g clip-path="url(#5c5edcad1f)"><g clip-path="url(#267ac1fbe5)"><g clip-path="url(#5a297b5f39)"><g clip-path="url(#2f737d38da)"><path fill="#212121" d="M 225.21875 274.035156 C 229.300781 273.019531 233.589844 271.957031 237.871094 270.882812 C 239.921875 270.363281 241.882812 269.597656 243.765625 268.617188 C 244.273438 268.355469 244.773438 268.058594 245.226562 267.707031 C 247.144531 266.230469 247.796875 264.226562 247.050781 261.898438 C 246.761719 260.996094 246.355469 260.105469 245.867188 259.285156 C 244.398438 256.8125 242.867188 254.375 241.34375 251.933594 C 241.007812 251.394531 240.578125 250.910156 240.183594 250.410156 C 237.632812 247.1875 234.203125 246.191406 230.28125 246.546875 C 228.304688 246.726562 226.402344 247.265625 224.507812 247.890625 C 219.710938 249.472656 214.945312 251.144531 210.078125 252.519531 C 206.445312 253.542969 202.851562 254.71875 199.140625 255.441406 C 193.929688 256.460938 188.679688 257.253906 183.355469 257.347656 C 178.679688 257.429688 174.042969 257.066406 169.5 255.816406 C 168.058594 255.417969 166.726562 254.84375 165.488281 254.023438 C 164.632812 253.460938 163.765625 252.90625 162.980469 252.25 C 162.347656 251.726562 161.765625 251.113281 161.28125 250.449219 C 156.863281 244.402344 152.472656 238.324219 148.058594 232.265625 C 143.308594 225.746094 138.554688 219.226562 133.785156 212.722656 C 129.699219 207.140625 125.582031 201.589844 121.488281 196.011719 C 117.167969 190.121094 112.871094 184.222656 108.5625 178.328125 C 103.988281 172.078125 99.417969 165.816406 94.839844 159.570312 C 88.816406 151.363281 82.792969 143.160156 76.761719 134.957031 C 71.070312 127.222656 65.371094 119.492188 59.679688 111.753906 C 55.847656 106.542969 52.039062 101.316406 48.203125 96.113281 C 41.628906 87.199219 35.027344 78.304688 28.46875 69.382812 C 25.09375 64.792969 21.808594 60.132812 18.445312 55.535156 C 16.175781 52.4375 13.832031 49.386719 11.519531 46.324219 C 11.324219 46.070312 11.101562 45.839844 10.886719 45.597656 C 9.46875 44.019531 9.339844 43.945312 7.4375 44.71875 C 5.535156 45.496094 3.855469 46.667969 2.296875 48.007812 C 1.824219 48.414062 1.636719 48.964844 1.828125 49.570312 C 1.976562 50.046875 2.140625 50.558594 2.425781 50.960938 C 3.199219 52.054688 3.984375 53.160156 4.886719 54.148438 C 6.183594 55.582031 7.285156 57.144531 8.402344 58.710938 C 11.707031 63.351562 15.003906 68 18.359375 72.605469 C 23.035156 79.023438 27.75 85.414062 32.46875 91.808594 C 35.050781 95.3125 37.664062 98.792969 40.25 102.292969 C 42.039062 104.71875 43.789062 107.160156 45.578125 109.585938 C 47.785156 112.566406 50.03125 115.53125 52.242188 118.511719 C 54.035156 120.929688 55.792969 123.371094 57.578125 125.796875 C 59.0625 127.804688 60.566406 129.789062 62.058594 131.792969 C 65.964844 137.03125 69.84375 142.285156 73.757812 147.515625 C 77.980469 153.15625 82.234375 158.765625 86.457031 164.40625 C 90.75 170.148438 94.992188 175.925781 99.285156 181.660156 C 103.089844 186.738281 106.945312 191.769531 110.753906 196.84375 C 114.554688 201.914062 118.316406 207.015625 122.109375 212.09375 C 124.558594 215.378906 127.042969 218.640625 129.492188 221.925781 C 134.046875 228.027344 138.59375 234.144531 143.152344 240.253906 C 147.132812 245.59375 151.109375 250.933594 155.121094 256.253906 C 158.167969 260.289062 161.269531 264.289062 164.328125 268.3125 C 165.722656 270.144531 167.128906 271.96875 168.433594 273.863281 C 169.148438 274.898438 170.007812 275.710938 171.085938 276.3125 C 174.140625 278.023438 177.421875 279.050781 180.878906 279.503906 C 185.53125 280.121094 190.191406 280.070312 194.847656 279.542969 C 198.273438 279.15625 201.695312 278.71875 205.101562 278.167969 C 208.195312 277.664062 211.257812 276.996094 214.328125 276.359375 C 217.890625 275.613281 221.453125 274.839844 225.21875 274.035156 Z M 220.542969 272.792969 C 220.550781 272.828125 220.554688 272.863281 220.5625 272.894531 C 215.976562 273.773438 211.390625 274.636719 206.808594 275.523438 C 202.035156 276.449219 197.226562 277.136719 192.367188 277.433594 C 188.605469 277.660156 184.84375 277.738281 181.082031 277.21875 C 177.644531 276.742188 174.519531 275.566406 171.769531 273.433594 C 171.21875 273.007812 170.710938 272.5 170.277344 271.957031 C 168.933594 270.246094 167.621094 268.511719 166.332031 266.757812 C 163.339844 262.683594 160.390625 258.574219 157.386719 254.503906 C 153.507812 249.246094 149.605469 244.011719 145.699219 238.777344 C 142.058594 233.90625 138.378906 229.058594 134.742188 224.1875 C 131.257812 219.519531 127.804688 214.824219 124.332031 210.140625 C 121.625 206.492188 118.902344 202.855469 116.191406 199.203125 C 113.441406 195.503906 110.710938 191.785156 107.957031 188.089844 C 104.28125 183.160156 100.582031 178.25 96.910156 173.320312 C 93.851562 169.214844 90.828125 165.082031 87.773438 160.976562 C 84.867188 157.078125 81.933594 153.191406 79.019531 149.292969 C 76.757812 146.265625 74.515625 143.230469 72.257812 140.195312 C 71.6875 139.425781 71.085938 138.671875 70.554688 137.867188 C 70.355469 137.574219 70.230469 137.167969 70.246094 136.820312 C 70.292969 135.609375 70.417969 134.398438 70.507812 133.191406 C 70.542969 132.679688 70.566406 132.167969 70.621094 131.65625 C 70.628906 131.554688 70.75 131.371094 70.816406 131.375 C 70.972656 131.386719 71.164062 131.445312 71.273438 131.546875 C 71.453125 131.722656 71.585938 131.949219 71.738281 132.160156 C 74.308594 135.675781 76.886719 139.1875 79.445312 142.714844 C 83.992188 148.976562 88.527344 155.257812 93.082031 161.519531 C 97.527344 167.628906 101.992188 173.722656 106.453125 179.828125 C 109.933594 184.578125 113.433594 189.320312 116.902344 194.082031 C 120.632812 199.207031 124.34375 204.351562 128.066406 209.484375 C 132.128906 215.078125 136.199219 220.667969 140.261719 226.265625 C 141.164062 227.511719 142.042969 228.777344 142.953125 230.007812 C 146.03125 234.175781 149.125 238.34375 152.214844 242.507812 C 154.847656 246.054688 157.488281 249.597656 160.148438 253.128906 C 160.492188 253.582031 160.890625 254.019531 161.34375 254.359375 C 164.585938 256.769531 168.222656 258.300781 172.1875 258.996094 C 174.636719 259.429688 177.085938 259.808594 179.589844 259.886719 C 182.785156 259.992188 185.972656 260.015625 189.144531 259.59375 C 191.613281 259.269531 194.089844 258.929688 196.519531 258.40625 C 199.203125 257.832031 201.855469 257.070312 204.5 256.335938 C 206.777344 255.703125 209.035156 254.984375 211.300781 254.300781 C 211.726562 254.171875 212.050781 254.292969 212.289062 254.660156 C 212.636719 255.195312 212.949219 255.757812 213.3125 256.277344 C 216.117188 260.261719 219.285156 263.960938 222.488281 267.621094 C 223.414062 268.679688 224.371094 269.71875 225.308594 270.769531 C 225.824219 271.347656 225.742188 271.683594 225.03125 271.839844 C 223.550781 272.175781 222.042969 272.480469 220.542969 272.792969 Z M 63.863281 128.792969 C 62.777344 127.410156 61.933594 126.375 61.136719 125.3125 C 56.601562 119.273438 52.085938 113.226562 47.554688 107.195312 C 45.746094 104.789062 43.894531 102.417969 42.097656 100.011719 C 39.867188 97.046875 37.675781 94.054688 35.449219 91.09375 C 34.101562 89.300781 32.710938 87.542969 31.355469 85.757812 C 30.078125 84.074219 28.84375 82.367188 27.566406 80.679688 C 27.003906 79.945312 26.699219 79.203125 26.824219 78.210938 C 27.058594 76.371094 27.136719 74.507812 27.304688 72.664062 C 27.335938 72.335938 27.5 72.023438 27.652344 71.546875 C 28.140625 72.152344 28.519531 72.582031 28.855469 73.050781 C 34.816406 81.292969 40.761719 89.542969 46.722656 97.792969 C 49.386719 101.472656 52.066406 105.140625 54.738281 108.820312 C 57.332031 112.394531 59.929688 115.960938 62.523438 119.535156 C 63.316406 120.625 64.128906 121.699219 64.882812 122.800781 C 65.085938 123.09375 65.289062 123.535156 65.21875 123.839844 C 64.855469 125.371094 64.394531 126.890625 63.863281 128.792969 Z M 221.136719 251.445312 C 223.496094 250.234375 225.839844 249.410156 228.28125 248.90625 C 229.523438 248.648438 230.816406 248.542969 232.082031 248.539062 C 234.511719 248.542969 236.558594 249.511719 238.101562 251.414062 C 238.746094 252.207031 239.355469 253.042969 239.882812 253.910156 C 241.015625 255.769531 242.101562 257.652344 243.179688 259.539062 C 243.683594 260.425781 244.171875 261.332031 244.609375 262.253906 C 245.394531 263.914062 245.121094 264.976562 243.660156 266.113281 C 243.257812 266.425781 242.804688 266.671875 242.371094 266.945312 C 240.890625 267.882812 239.179688 268.238281 237.558594 268.808594 C 235.535156 269.515625 235.839844 269.570312 234.570312 267.953125 C 230.347656 262.566406 226.273438 257.054688 221.539062 252.085938 C 221.410156 251.957031 221.335938 251.78125 221.136719 251.445312 Z M 21.523438 72.601562 C 21.015625 71.996094 20.769531 71.714844 20.542969 71.421875 C 16.886719 66.726562 13.226562 62.023438 9.582031 57.320312 C 9.152344 56.761719 8.789062 56.15625 8.378906 55.585938 C 7.605469 54.492188 6.832031 53.390625 6.03125 52.316406 C 5.492188 51.601562 4.894531 50.933594 4.335938 50.230469 C 3.9375 49.730469 3.949219 49.445312 4.398438 49.101562 C 5.710938 48.089844 7.042969 47.089844 8.367188 46.101562 C 8.679688 45.871094 8.976562 45.980469 9.203125 46.261719 C 9.636719 46.816406 10.089844 47.363281 10.480469 47.945312 C 13.171875 52.007812 16.109375 55.886719 19.136719 59.703125 C 20.367188 61.257812 21.488281 62.898438 22.683594 64.488281 C 23.011719 64.925781 23.1875 65.351562 23.058594 65.902344 C 22.558594 68.007812 22.089844 70.125 21.523438 72.601562 Z M 233.527344 269.8125 C 233.105469 269.996094 232.9375 270.097656 232.75 270.140625 C 231.820312 270.363281 230.847656 270.46875 229.960938 270.804688 C 228.703125 271.269531 227.886719 270.882812 227.261719 269.796875 C 227.226562 269.742188 227.191406 269.691406 227.148438 269.640625 C 224.328125 266.171875 221.535156 262.675781 218.664062 259.25 C 217.230469 257.535156 215.644531 255.953125 214.128906 254.300781 C 213.664062 253.796875 213.703125 253.523438 214.300781 253.359375 C 215.652344 252.96875 217.015625 252.617188 218.359375 252.222656 C 218.9375 252.054688 219.3125 252.222656 219.65625 252.703125 C 220.839844 254.371094 221.984375 256.078125 223.273438 257.652344 C 226.152344 261.15625 229.121094 264.589844 232.054688 268.058594 C 232.503906 268.578125 232.945312 269.117188 233.527344 269.8125 Z M 68.050781 134.320312 C 67.511719 133.707031 67.234375 133.378906 66.9375 133.0625 C 66.132812 132.207031 65.921875 131.222656 66.082031 130.066406 C 66.269531 128.746094 66.300781 127.402344 66.425781 126.074219 C 66.445312 125.863281 66.589844 125.667969 66.738281 125.308594 C 67.199219 125.898438 67.550781 126.339844 67.894531 126.792969 C 68.609375 127.734375 68.96875 128.707031 68.660156 129.964844 C 68.34375 131.253906 68.28125 132.59375 68.050781 134.320312 Z M 24.421875 67.09375 C 24.847656 67.570312 25.050781 67.816406 25.265625 68.039062 C 25.992188 68.789062 26.167969 69.644531 25.9375 70.671875 C 25.5625 72.347656 25.28125 74.039062 24.949219 75.722656 C 24.914062 75.910156 24.867188 76.101562 24.777344 76.257812 C 24.726562 76.34375 24.554688 76.4375 24.484375 76.414062 C 23.933594 76.222656 23.289062 75.007812 23.378906 74.375 C 23.59375 72.863281 23.796875 71.351562 24.011719 69.847656 C 24.125 69.042969 24.25 68.234375 24.421875 67.09375 Z M 24.421875 67.09375 " fill-opacity="1" fill-rule="nonzero"/></g></g></g></g></g></g></g></g><g clip-path="url(#64d4dd9a7c)"><g clip-path="url(#0ebafa5126)"><g clip-path="url(#8b8b128bc7)"><g clip-path="url(#73f4bf3f1b)"><path fill="#212121" d="M 33.023438 275.863281 C 28.929688 274.894531 24.628906 273.878906 20.335938 272.855469 C 18.277344 272.363281 16.308594 271.617188 14.417969 270.660156 C 13.90625 270.402344 13.402344 270.113281 12.941406 269.765625 C 11.011719 268.3125 10.332031 266.316406 11.050781 263.980469 C 11.332031 263.070312 11.726562 262.179688 12.207031 261.351562 C 13.644531 258.863281 15.148438 256.410156 16.644531 253.949219 C 16.972656 253.40625 17.394531 252.917969 17.785156 252.410156 C 20.296875 249.160156 23.714844 248.125 27.640625 248.433594 C 29.621094 248.589844 31.527344 249.105469 33.429688 249.710938 C 38.25 251.238281 43.03125 252.855469 47.914062 254.175781 C 51.558594 255.15625 55.164062 256.289062 58.882812 256.96875 C 64.105469 257.929688 69.363281 258.660156 74.6875 258.695312 C 79.367188 258.71875 84 258.304688 88.527344 257 C 89.960938 256.585938 91.289062 255.996094 92.519531 255.164062 C 93.367188 254.589844 94.226562 254.027344 95.003906 253.359375 C 95.632812 252.828125 96.207031 252.207031 96.683594 251.539062 C 101.03125 245.441406 105.351562 239.3125 109.695312 233.207031 C 114.367188 226.628906 119.046875 220.058594 123.738281 213.496094 C 127.761719 207.871094 131.816406 202.269531 135.84375 196.644531 C 140.09375 190.703125 144.324219 184.753906 148.5625 178.8125 C 153.066406 172.507812 157.5625 166.199219 162.070312 159.898438 C 167.996094 151.621094 173.925781 143.347656 179.863281 135.078125 C 185.460938 127.277344 191.074219 119.480469 196.675781 111.679688 C 200.445312 106.425781 204.195312 101.152344 207.96875 95.90625 C 214.441406 86.917969 220.9375 77.945312 227.394531 68.949219 C 230.714844 64.320312 233.945312 59.621094 237.253906 54.988281 C 239.488281 51.863281 241.796875 48.785156 244.074219 45.695312 C 244.265625 45.4375 244.488281 45.207031 244.699219 44.960938 C 246.097656 43.367188 246.226562 43.292969 248.136719 44.046875 C 250.050781 44.800781 251.742188 45.953125 253.316406 47.269531 C 253.792969 47.675781 253.988281 48.222656 253.800781 48.828125 C 253.660156 49.308594 253.503906 49.820312 253.222656 50.230469 C 252.460938 51.332031 251.691406 52.441406 250.796875 53.441406 C 249.515625 54.890625 248.4375 56.464844 247.335938 58.042969 C 244.085938 62.722656 240.839844 67.410156 237.539062 72.054688 C 232.9375 78.527344 228.296875 84.96875 223.652344 91.417969 C 221.109375 94.953125 218.539062 98.464844 215.992188 101.992188 C 214.234375 104.4375 212.511719 106.902344 210.75 109.347656 C 208.574219 112.355469 206.363281 115.34375 204.1875 118.351562 C 202.425781 120.789062 200.695312 123.25 198.9375 125.695312 C 197.480469 127.71875 195.996094 129.722656 194.527344 131.742188 C 190.683594 137.027344 186.863281 142.324219 183.011719 147.601562 C 178.855469 153.289062 174.664062 158.949219 170.507812 164.636719 C 166.28125 170.425781 162.105469 176.253906 157.878906 182.039062 C 154.136719 187.15625 150.335938 192.234375 146.585938 197.351562 C 142.84375 202.464844 139.140625 207.613281 135.410156 212.734375 C 132.996094 216.046875 130.554688 219.339844 128.140625 222.648438 C 123.65625 228.804688 119.179688 234.976562 114.691406 241.136719 C 110.773438 246.519531 106.859375 251.90625 102.910156 257.273438 C 99.910156 261.34375 96.855469 265.378906 93.839844 269.433594 C 92.472656 271.285156 91.085938 273.125 89.800781 275.035156 C 89.097656 276.078125 88.25 276.898438 87.179688 277.515625 C 84.144531 279.261719 80.875 280.324219 77.425781 280.820312 C 72.777344 281.492188 68.117188 281.492188 63.457031 281.019531 C 60.023438 280.671875 56.597656 280.273438 53.1875 279.761719 C 50.089844 279.292969 47.019531 278.660156 43.941406 278.0625 C 40.367188 277.355469 36.796875 276.621094 33.023438 275.863281 Z M 37.683594 274.566406 C 37.675781 274.601562 37.675781 274.636719 37.664062 274.671875 C 42.261719 275.492188 46.855469 276.304688 51.449219 277.140625 C 56.230469 278.007812 61.046875 278.640625 65.910156 278.882812 C 69.675781 279.066406 73.4375 279.101562 77.191406 278.535156 C 80.625 278.019531 83.738281 276.804688 86.460938 274.644531 C 87.003906 274.210938 87.511719 273.699219 87.9375 273.148438 C 89.257812 271.421875 90.554688 269.671875 91.820312 267.902344 C 94.765625 263.796875 97.667969 259.652344 100.625 255.546875 C 104.441406 250.246094 108.28125 244.964844 112.128906 239.6875 C 115.710938 234.773438 119.335938 229.886719 122.917969 224.972656 C 126.347656 220.261719 129.746094 215.527344 133.164062 210.804688 C 135.828125 207.128906 138.511719 203.460938 141.175781 199.777344 C 143.882812 196.042969 146.570312 192.292969 149.28125 188.566406 C 152.902344 183.597656 156.542969 178.640625 160.15625 173.667969 C 163.167969 169.53125 166.144531 165.363281 169.152344 161.222656 C 172.015625 157.289062 174.902344 153.371094 177.769531 149.4375 C 179.996094 146.382812 182.203125 143.324219 184.425781 140.261719 C 184.988281 139.484375 185.578125 138.726562 186.101562 137.917969 C 186.296875 137.621094 186.417969 137.210938 186.398438 136.863281 C 186.335938 135.65625 186.199219 134.445312 186.097656 133.238281 C 186.054688 132.726562 186.027344 132.21875 185.964844 131.707031 C 185.953125 131.601562 185.832031 131.421875 185.765625 131.429688 C 185.609375 131.4375 185.417969 131.5 185.308594 131.605469 C 185.132812 131.78125 185 132.011719 184.851562 132.222656 C 182.324219 135.769531 179.785156 139.308594 177.269531 142.863281 C 172.792969 149.179688 168.332031 155.511719 163.847656 161.828125 C 159.476562 167.988281 155.082031 174.132812 150.691406 180.289062 C 147.265625 185.082031 143.820312 189.863281 140.40625 194.664062 C 136.734375 199.828125 133.085938 205.015625 129.425781 210.191406 C 125.425781 215.835938 121.417969 221.472656 117.421875 227.113281 C 116.53125 228.371094 115.671875 229.644531 114.773438 230.886719 C 111.742188 235.09375 108.699219 239.296875 105.660156 243.492188 C 103.066406 247.070312 100.464844 250.644531 97.847656 254.203125 C 97.507812 254.660156 97.113281 255.105469 96.667969 255.449219 C 93.449219 257.898438 89.832031 259.46875 85.878906 260.210938 C 83.433594 260.671875 80.988281 261.078125 78.484375 261.191406 C 75.289062 261.332031 72.101562 261.390625 68.925781 261.003906 C 66.453125 260.707031 63.972656 260.398438 61.539062 259.902344 C 58.847656 259.359375 56.191406 258.628906 53.539062 257.925781 C 51.25 257.316406 48.984375 256.625 46.710938 255.96875 C 46.285156 255.84375 45.960938 255.96875 45.726562 256.339844 C 45.386719 256.878906 45.082031 257.445312 44.722656 257.96875 C 41.964844 261.984375 38.835938 265.71875 35.679688 269.417969 C 34.765625 270.488281 33.820312 271.535156 32.894531 272.601562 C 32.386719 273.183594 32.472656 273.515625 33.183594 273.667969 C 34.667969 273.984375 36.179688 274.269531 37.683594 274.566406 Z M 192.6875 128.765625 C 193.757812 127.371094 194.589844 126.324219 195.375 125.253906 C 199.835938 119.164062 204.285156 113.0625 208.746094 106.980469 C 210.527344 104.550781 212.347656 102.160156 214.121094 99.734375 C 216.316406 96.742188 218.472656 93.726562 220.664062 90.738281 C 221.988281 88.929688 223.359375 87.15625 224.695312 85.359375 C 225.953125 83.65625 227.167969 81.9375 228.425781 80.234375 C 228.980469 79.492188 229.277344 78.746094 229.140625 77.757812 C 228.882812 75.921875 228.78125 74.058594 228.59375 72.21875 C 228.558594 71.890625 228.390625 71.578125 228.234375 71.101562 C 227.75 71.714844 227.378906 72.148438 227.046875 72.621094 C 221.183594 80.929688 215.332031 89.25 209.46875 97.566406 C 206.847656 101.28125 204.207031 104.976562 201.582031 108.6875 C 199.03125 112.292969 196.472656 115.886719 193.921875 119.492188 C 193.140625 120.589844 192.339844 121.671875 191.601562 122.785156 C 191.398438 123.082031 191.199219 123.523438 191.277344 123.824219 C 191.65625 125.351562 192.136719 126.867188 192.6875 128.765625 Z M 36.84375 253.230469 C 34.472656 252.046875 32.117188 251.246094 29.671875 250.773438 C 28.425781 250.53125 27.132812 250.4375 25.867188 250.449219 C 23.433594 250.480469 21.402344 251.472656 19.878906 253.394531 C 19.246094 254.195312 18.644531 255.035156 18.125 255.910156 C 17.015625 257.78125 15.953125 259.675781 14.894531 261.574219 C 14.398438 262.46875 13.925781 263.378906 13.5 264.308594 C 12.730469 265.976562 13.015625 267.035156 14.492188 268.15625 C 14.894531 268.464844 15.351562 268.703125 15.789062 268.972656 C 17.28125 269.890625 18.996094 270.226562 20.621094 270.777344 C 22.65625 271.460938 22.351562 271.519531 23.601562 269.886719 C 27.761719 264.453125 31.773438 258.894531 36.449219 253.875 C 36.574219 253.746094 36.648438 253.566406 36.84375 253.230469 Z M 234.375 72.085938 C 234.875 71.476562 235.117188 71.191406 235.34375 70.898438 C 238.941406 66.15625 242.550781 61.414062 246.140625 56.667969 C 246.5625 56.105469 246.917969 55.496094 247.320312 54.917969 C 248.085938 53.816406 248.84375 52.707031 249.628906 51.625 C 250.160156 50.902344 250.75 50.226562 251.304688 49.519531 C 251.695312 49.015625 251.679688 48.726562 251.230469 48.390625 C 249.902344 47.394531 248.558594 46.410156 247.222656 45.4375 C 246.910156 45.207031 246.613281 45.320312 246.390625 45.605469 C 245.964844 46.167969 245.515625 46.714844 245.132812 47.304688 C 242.488281 51.398438 239.597656 55.3125 236.613281 59.160156 C 235.398438 60.730469 234.296875 62.382812 233.121094 63.984375 C 232.800781 64.429688 232.628906 64.855469 232.761719 65.40625 C 233.285156 67.507812 233.78125 69.617188 234.375 72.085938 Z M 24.664062 271.738281 C 25.089844 271.914062 25.261719 272.015625 25.445312 272.058594 C 26.378906 272.265625 27.355469 272.363281 28.246094 272.6875 C 29.507812 273.136719 30.320312 272.738281 30.933594 271.648438 C 30.964844 271.59375 31 271.542969 31.039062 271.492188 C 33.824219 267.988281 36.574219 264.460938 39.40625 261 C 40.820312 259.273438 42.386719 257.667969 43.882812 256.003906 C 44.339844 255.492188 44.300781 255.21875 43.699219 255.0625 C 42.34375 254.6875 40.976562 254.351562 39.628906 253.972656 C 39.046875 253.808594 38.675781 253.980469 38.335938 254.46875 C 37.171875 256.148438 36.050781 257.871094 34.777344 259.460938 C 31.941406 262.996094 29.011719 266.464844 26.117188 269.964844 C 25.675781 270.492188 25.238281 271.035156 24.664062 271.738281 Z M 188.566406 134.339844 C 189.097656 133.71875 189.371094 133.386719 189.664062 133.066406 C 190.457031 132.203125 190.65625 131.214844 190.480469 130.0625 C 190.28125 128.746094 190.234375 127.402344 190.09375 126.074219 C 190.074219 125.863281 189.925781 125.667969 189.773438 125.3125 C 189.320312 125.910156 188.972656 126.355469 188.632812 126.8125 C 187.929688 127.761719 187.582031 128.738281 187.90625 129.992188 C 188.238281 131.277344 188.3125 132.617188 188.566406 134.339844 Z M 231.414062 66.613281 C 230.996094 67.09375 230.792969 67.339844 230.582031 67.570312 C 229.863281 68.328125 229.695312 69.1875 229.9375 70.207031 C 230.332031 71.878906 230.632812 73.570312 230.984375 75.25 C 231.023438 75.4375 231.070312 75.625 231.164062 75.78125 C 231.214844 75.867188 231.386719 75.960938 231.457031 75.933594 C 232.007812 75.734375 232.640625 74.511719 232.542969 73.878906 C 232.308594 72.371094 232.089844 70.863281 231.855469 69.359375 C 231.734375 68.558594 231.597656 67.75 231.414062 66.613281 Z M 231.414062 66.613281 " fill-opacity="1" fill-rule="nonzero"/></g></g></g></g><path fill="#082567" d="M 181.636719 241.164062 C 179.933594 236.203125 175.722656 232.839844 170.625 232.382812 C 165.644531 232 160.804688 234.074219 157.789062 237.90625 C 155.035156 234.410156 150.808594 232.316406 146.265625 232.316406 C 140.957031 232.316406 136.222656 235.5 134.21875 240.417969 C 132.144531 245.503906 133.59375 251.441406 137.484375 255.296875 C 137.484375 255.296875 156.699219 274.449219 156.703125 274.457031 C 157.28125 275.03125 158.269531 275.054688 158.871094 274.457031 L 178.09375 255.296875 C 181.90625 251.515625 183.296875 245.964844 181.636719 241.164062 Z M 181.636719 241.164062 " fill-opacity="1" fill-rule="nonzero"/><g clip-path="url(#75371b71de)"><g transform="matrix(1, 0, 0, 1, 194, 104)"><g clip-path="url(#7f011fbfc0)"><g fill="#000000" fill-opacity="1"><g transform="translate(1.963578, 84.424971)"><g><path d="M 15.90625 12.0625 C 5.226562 11.15625 -0.109375 5.679688 -0.109375 -4.359375 C -0.109375 -10.316406 1.765625 -16.625 5.515625 -23.28125 C 7.722656 -27.300781 10.503906 -31.210938 13.859375 -35.015625 C 17.222656 -38.828125 20.894531 -42.273438 24.875 -45.359375 C 28.863281 -48.441406 32.953125 -50.882812 37.140625 -52.6875 C 41.335938 -54.488281 45.378906 -55.390625 49.265625 -55.390625 C 56.117188 -55.390625 59.546875 -52.859375 59.546875 -47.796875 C 59.546875 -44.410156 58.503906 -40.640625 56.421875 -36.484375 C 54.347656 -32.316406 52.238281 -29.679688 50.09375 -28.578125 C 49.882812 -28.503906 49.640625 -28.46875 49.359375 -28.46875 C 49.148438 -28.46875 49.046875 -28.539062 49.046875 -28.6875 L 52.484375 -34.296875 C 54.835938 -38.171875 56.015625 -41.566406 56.015625 -44.484375 C 56.015625 -46.554688 55.457031 -48.523438 54.34375 -50.390625 C 53.238281 -52.265625 51.265625 -53.203125 48.421875 -53.203125 C 44.960938 -53.203125 41.410156 -52.234375 37.765625 -50.296875 C 34.128906 -48.359375 30.613281 -45.796875 27.21875 -42.609375 C 23.832031 -39.421875 20.753906 -35.90625 17.984375 -32.0625 C 15.210938 -28.21875 12.992188 -24.425781 11.328125 -20.6875 C 7.796875 -12.71875 6.03125 -6.269531 6.03125 -1.34375 C 6.03125 6.0625 9.804688 9.765625 17.359375 9.765625 C 24.554688 9.765625 34.320312 5.125 46.65625 -4.15625 C 49.5 -6.300781 53.15625 -9.3125 57.625 -13.1875 C 62.09375 -17.070312 67.34375 -21.785156 73.375 -27.328125 C 72.539062 -27.265625 71.5 -27.179688 70.25 -27.078125 C 69 -26.972656 67.546875 -26.78125 65.890625 -26.5 C 65.191406 -26.363281 64.53125 -26.242188 63.90625 -26.140625 C 63.289062 -26.035156 62.703125 -25.984375 62.140625 -25.984375 C 60.753906 -26.117188 60.164062 -26.460938 60.375 -27.015625 C 60.65625 -29.578125 61.972656 -30.859375 64.328125 -30.859375 C 66.472656 -30.585938 68.5 -30.378906 70.40625 -30.234375 C 72.3125 -30.097656 74.128906 -30.03125 75.859375 -30.03125 C 78.566406 -32.53125 82.15625 -36.015625 86.625 -40.484375 C 91.09375 -44.953125 96.410156 -50.441406 102.578125 -56.953125 C 110.535156 -65.335938 115.382812 -69.53125 117.125 -69.53125 C 117.882812 -69.53125 118.265625 -68.832031 118.265625 -67.4375 C 118.265625 -66.882812 118.191406 -66.191406 118.046875 -65.359375 C 117.910156 -64.535156 117.707031 -63.566406 117.4375 -62.453125 C 116.738281 -59.828125 116.007812 -58.234375 115.25 -57.671875 C 113.101562 -56.148438 111.316406 -54.191406 109.890625 -51.796875 C 108.472656 -49.410156 107.035156 -46.765625 105.578125 -43.859375 C 104.128906 -40.878906 102.796875 -38.226562 101.578125 -35.90625 C 100.367188 -33.582031 99.28125 -31.519531 98.3125 -29.71875 L 108.390625 -29.921875 C 110.878906 -29.921875 112.125 -29.75 112.125 -29.40625 C 112.125 -29.34375 112.054688 -29.238281 111.921875 -29.09375 C 110.742188 -28.332031 105.753906 -27.640625 96.953125 -27.015625 C 90.515625 -14.472656 87.296875 -5.882812 87.296875 -1.25 C 87.296875 1.9375 88.300781 3.53125 90.3125 3.53125 C 91.070312 3.53125 92.039062 3.046875 93.21875 2.078125 C 94.320312 1.179688 95.015625 0.734375 95.296875 0.734375 C 95.296875 0.585938 95.328125 0.550781 95.390625 0.625 C 95.460938 0.695312 95.429688 0.734375 95.296875 0.734375 C 94.953125 1.972656 93.929688 3.09375 92.234375 4.09375 C 90.535156 5.101562 88.75 5.609375 86.875 5.609375 C 85.144531 5.609375 84.003906 5.050781 83.453125 3.9375 C 82.898438 2.832031 82.625 1.3125 82.625 -0.625 C 82.625 -7.625 85.289062 -16.523438 90.625 -27.328125 L 78.15625 -27.015625 C 68.863281 -17.941406 59.539062 -9.976562 50.1875 -3.125 C 35.289062 7.6875 23.863281 12.75 15.90625 12.0625 Z M 91.5625 -30.03125 C 92.382812 -31.625 94.039062 -34.515625 96.53125 -38.703125 C 99.03125 -42.898438 102.394531 -48.359375 106.625 -55.078125 L 80.015625 -30.140625 Z M 91.5625 -30.03125 "/></g></g></g></g></g></g><g clip-path="url(#6a02a7772c)"><g transform="matrix(1, 0, 0, 1, -0.000000000000007105, 104)"><g clip-path="url(#58c2dcc78d)"><g clip-path="url(#71b985f70e)"><g fill="#000000" fill-opacity="1"><g transform="translate(4.019381, 84.424971)"><g><path d="M 29 9.875 C 26.15625 9.875 22.617188 8.175781 18.390625 4.78125 C 15.410156 4.289062 12.863281 3.644531 10.75 2.84375 C 8.644531 2.050781 6.898438 1.101562 5.515625 0 C 3.566406 -1.664062 1.863281 -3.882812 0.40625 -6.65625 C -1.039062 -9.425781 -1.765625 -12.09375 -1.765625 -14.65625 C -1.765625 -16.59375 -1.316406 -18.320312 -0.421875 -19.84375 C 1.660156 -23.519531 4.296875 -25.359375 7.484375 -25.359375 C 9.910156 -25.359375 11.332031 -23.3125 11.75 -19.21875 C 12.226562 -15.414062 12.625 -12.382812 12.9375 -10.125 C 13.25 -7.875 13.507812 -6.40625 13.71875 -5.71875 C 14.757812 -2.320312 16.523438 0.550781 19.015625 2.90625 C 21.921875 3.53125 25.070312 3.84375 28.46875 3.84375 C 35.957031 3.84375 43.128906 2.421875 49.984375 -0.421875 C 52.890625 -1.660156 55.726562 -3.285156 58.5 -5.296875 C 61.28125 -7.304688 63.566406 -9.523438 65.359375 -11.953125 C 67.160156 -14.378906 68.0625 -16.734375 68.0625 -19.015625 C 68.0625 -22.273438 65.1875 -24.804688 59.4375 -26.609375 L 41.15625 -30.765625 C 37.414062 -31.597656 34.414062 -33.066406 32.15625 -35.171875 C 29.90625 -37.285156 28.78125 -39.695312 28.78125 -42.40625 C 28.78125 -46.5625 31.378906 -50.71875 36.578125 -54.875 C 39.210938 -57.019531 42.296875 -58.835938 45.828125 -60.328125 C 49.359375 -61.816406 53.082031 -62.957031 57 -63.75 C 60.914062 -64.550781 64.675781 -64.953125 68.28125 -64.953125 C 73.40625 -64.953125 77.785156 -64.15625 81.421875 -62.5625 C 85.054688 -60.96875 87.328125 -58.644531 88.234375 -55.59375 C 88.441406 -54.90625 88.546875 -54.144531 88.546875 -53.3125 C 88.546875 -49.082031 86.429688 -46.140625 82.203125 -44.484375 C 79.640625 -43.441406 77.457031 -42.921875 75.65625 -42.921875 C 74.550781 -42.921875 73.6875 -43.128906 73.0625 -43.546875 C 72.914062 -43.679688 72.84375 -43.851562 72.84375 -44.0625 C 72.84375 -44.550781 73.816406 -44.828125 75.765625 -44.890625 C 76.941406 -44.960938 77.910156 -45.066406 78.671875 -45.203125 C 79.429688 -45.335938 79.984375 -45.476562 80.328125 -45.625 C 82.960938 -47.007812 84.28125 -49.050781 84.28125 -51.75 C 84.28125 -53.132812 83.898438 -54.59375 83.140625 -56.125 C 80.992188 -60.070312 75.625 -62.046875 67.03125 -62.046875 C 63.914062 -62.046875 60.691406 -61.710938 57.359375 -61.046875 C 54.035156 -60.390625 50.882812 -59.421875 47.90625 -58.140625 C 44.925781 -56.859375 42.398438 -55.25 40.328125 -53.3125 C 36.722656 -49.988281 34.921875 -47.007812 34.921875 -44.375 C 34.921875 -42.363281 35.90625 -40.578125 37.875 -39.015625 C 39.851562 -37.460938 42.851562 -36.304688 46.875 -35.546875 L 59.125 -33.25 C 63.84375 -32.351562 67.65625 -31.019531 70.5625 -29.25 C 73.46875 -27.488281 74.921875 -24.804688 74.921875 -21.203125 C 74.921875 -18.015625 74.125 -15.035156 72.53125 -12.265625 C 70.9375 -9.492188 68.804688 -7.015625 66.140625 -4.828125 C 63.472656 -2.648438 60.441406 -0.832031 57.046875 0.625 C 49.359375 4.019531 40.285156 5.71875 29.828125 5.71875 C 28.503906 5.71875 27.1875 5.679688 25.875 5.609375 C 24.5625 5.546875 23.28125 5.441406 22.03125 5.296875 C 23 5.847656 24.226562 6.398438 25.71875 6.953125 C 27.207031 7.515625 28.921875 8.035156 30.859375 8.515625 C 31.066406 8.585938 31.171875 8.726562 31.171875 8.9375 C 31.171875 9.5625 30.445312 9.875 29 9.875 Z M 15.28125 1.875 C 13.40625 -0.207031 11.945312 -2.359375 10.90625 -4.578125 C 9.382812 -8.035156 8.242188 -12.296875 7.484375 -17.359375 C 6.929688 -21.023438 6.34375 -22.859375 5.71875 -22.859375 C 5.164062 -22.859375 4.421875 -22.441406 3.484375 -21.609375 C 2.546875 -20.785156 2.078125 -19.019531 2.078125 -16.3125 C 2.078125 -11.050781 3.945312 -6.476562 7.6875 -2.59375 C 9.5625 -0.65625 12.09375 0.832031 15.28125 1.875 Z M 15.28125 1.875 "/></g></g></g></g></g></g></g><g fill="#000000" fill-opacity="1"><g transform="translate(142.041015, 104.145424)"><g><path d="M 23.5625 -30.953125 C 23.726562 -32.085938 24.113281 -32.851562 24.71875 -33.25 C 25.320312 -33.644531 26.007812 -33.757812 26.78125 -33.59375 C 27.5625 -33.425781 28.273438 -33.070312 28.921875 -32.53125 C 29.566406 -31.988281 30.035156 -31.316406 30.328125 -30.515625 C 30.617188 -29.722656 30.578125 -28.910156 30.203125 -28.078125 C 29.703125 -27.035156 29.035156 -26.226562 28.203125 -25.65625 C 27.367188 -25.09375 26.4375 -24.675781 25.40625 -24.40625 C 24.382812 -24.132812 23.332031 -23.90625 22.25 -23.71875 C 21.164062 -23.53125 20.140625 -23.269531 19.171875 -22.9375 C 20.972656 -22.894531 22.320312 -22.335938 23.21875 -21.265625 C 24.113281 -20.203125 24.5625 -18.910156 24.5625 -17.390625 C 24.5625 -15.867188 24.125 -14.34375 23.25 -12.8125 C 22.375 -11.289062 21.023438 -10.003906 19.203125 -8.953125 C 17.390625 -7.910156 15.125 -7.390625 12.40625 -7.390625 C 9.226562 -7.390625 6.664062 -7.929688 4.71875 -9.015625 C 2.78125 -10.109375 1.4375 -11.476562 0.6875 -13.125 C -0.0625 -14.78125 -0.207031 -16.453125 0.25 -18.140625 C 0.707031 -19.835938 1.75 -21.34375 3.375 -22.65625 C 5.007812 -23.96875 7.226562 -24.789062 10.03125 -25.125 C 7.601562 -25.550781 5.707031 -26.296875 4.34375 -27.359375 C 2.988281 -28.421875 2.132812 -29.628906 1.78125 -30.984375 C 1.425781 -32.347656 1.539062 -33.65625 2.125 -34.90625 C 2.71875 -36.15625 3.742188 -37.195312 5.203125 -38.03125 C 6.660156 -38.875 8.519531 -39.296875 10.78125 -39.296875 C 14 -39.296875 16.460938 -38.644531 18.171875 -37.34375 C 19.890625 -36.050781 20.707031 -34.40625 20.625 -32.40625 C 20.582031 -31.644531 20.265625 -31.054688 19.671875 -30.640625 C 19.085938 -30.222656 18.390625 -29.972656 17.578125 -29.890625 C 16.765625 -29.804688 15.988281 -29.878906 15.25 -30.109375 C 14.519531 -30.335938 13.96875 -30.710938 13.59375 -31.234375 C 13.21875 -31.765625 13.195312 -32.425781 13.53125 -33.21875 C 13.78125 -33.800781 13.882812 -34.425781 13.84375 -35.09375 C 13.800781 -35.757812 13.6875 -36.332031 13.5 -36.8125 C 13.3125 -37.300781 13.050781 -37.546875 12.71875 -37.546875 C 12.09375 -37.546875 11.539062 -37.0625 11.0625 -36.09375 C 10.582031 -35.132812 10.269531 -33.960938 10.125 -32.578125 C 9.976562 -31.203125 10.082031 -29.859375 10.4375 -28.546875 C 10.789062 -27.234375 11.488281 -26.21875 12.53125 -25.5 C 12.820312 -25.332031 13.070312 -25.09375 13.28125 -24.78125 C 13.488281 -24.46875 13.363281 -24.289062 12.90625 -24.25 C 11.945312 -24.164062 11.195312 -23.65625 10.65625 -22.71875 C 10.113281 -21.78125 9.789062 -20.628906 9.6875 -19.265625 C 9.582031 -17.910156 9.71875 -16.550781 10.09375 -15.1875 C 10.46875 -13.832031 11.101562 -12.707031 12 -11.8125 C 12.894531 -10.914062 14.054688 -10.46875 15.484375 -10.46875 C 17.148438 -10.46875 18.546875 -10.90625 19.671875 -11.78125 C 20.804688 -12.65625 21.613281 -13.707031 22.09375 -14.9375 C 22.570312 -16.175781 22.695312 -17.378906 22.46875 -18.546875 C 22.238281 -19.722656 21.601562 -20.582031 20.5625 -21.125 C 19.632812 -21.625 19.015625 -21.675781 18.703125 -21.28125 C 18.390625 -20.882812 18.265625 -20.328125 18.328125 -19.609375 C 18.390625 -18.898438 18.503906 -18.316406 18.671875 -17.859375 C 19.046875 -16.859375 19.023438 -16.078125 18.609375 -15.515625 C 18.191406 -14.953125 17.597656 -14.59375 16.828125 -14.4375 C 16.054688 -14.289062 15.3125 -14.34375 14.59375 -14.59375 C 13.882812 -14.851562 13.40625 -15.316406 13.15625 -15.984375 C 12.820312 -16.859375 12.78125 -17.773438 13.03125 -18.734375 C 13.40625 -20.117188 13.976562 -21.21875 14.75 -22.03125 C 15.53125 -22.84375 16.378906 -23.53125 17.296875 -24.09375 C 18.210938 -24.65625 19.109375 -25.207031 19.984375 -25.75 C 20.867188 -26.300781 21.632812 -26.984375 22.28125 -27.796875 C 22.925781 -28.609375 23.351562 -29.660156 23.5625 -30.953125 Z M 23.5625 -30.953125 "/></g></g></g></g></g></svg>